<mxfile host="app.diagrams.net" modified="2023-04-03T02:27:24.235Z" agent="Mozilla/5.0 (Windows NT 10.0; Win64; x64) AppleWebKit/537.36 (KHTML, like Gecko) Chrome/111.0.0.0 Safari/537.36" etag="QkIzWxI4kR5JFOCEGF59" version="21.1.2" type="github">
  <diagram name="第 1 页" id="er9I0QnL_Se0PQcWxd1t">
    <mxGraphModel dx="1050" dy="549" grid="1" gridSize="10" guides="1" tooltips="1" connect="1" arrows="1" fold="1" page="1" pageScale="1" pageWidth="827" pageHeight="1169" math="0" shadow="0">
      <root>
        <mxCell id="0" />
        <mxCell id="1" parent="0" />
        <mxCell id="ewofRc9dXVoDsyhrSTzK-1" value="&lt;font style=&quot;font-size: 14px;&quot;&gt;企微宝&lt;/font&gt;" style="rounded=0;whiteSpace=wrap;html=1;" vertex="1" parent="1">
          <mxGeometry x="120" y="330" width="210" height="40" as="geometry" />
        </mxCell>
        <mxCell id="ewofRc9dXVoDsyhrSTzK-2" value="&lt;font style=&quot;font-size: 14px;&quot;&gt;企业微信&lt;/font&gt;" style="rounded=0;whiteSpace=wrap;html=1;" vertex="1" parent="1">
          <mxGeometry x="460" y="330" width="210" height="40" as="geometry" />
        </mxCell>
      </root>
    </mxGraphModel>
  </diagram>
</mxfile>
